<svg width="169" height="169" viewBox="0 0 169 169" fill="none" xmlns="http://www.w3.org/2000/svg">
<circle cx="84.5" cy="84.5" r="84.5" fill="#FFEAE3" fill-opacity="0.7"/>
<circle cx="84.5" cy="84.5" r="74.5" fill="#FFD8CA" fill-opacity="0.7"/>
<circle cx="84.5" cy="84.5" r="61.5" fill="#FF7833" fill-opacity="0.7"/>
<path d="M73.6774 64.2158C74.6052 65.8256 74.0328 67.8656 72.613 69.0604C68.3888 72.6152 65.7097 77.9469 65.7097 83.904C65.7097 94.5971 74.3463 103.266 85 103.266C95.6538 103.266 104.29 94.5971 104.29 83.904C104.29 77.9469 101.611 72.6152 97.387 69.0604C95.9672 67.8656 95.3948 65.8256 96.3226 64.2158C97.2503 62.6061 99.319 62.04 100.79 63.1705C106.992 67.936 111 75.4487 111 83.904C111 98.3164 99.3594 110 85 110C70.6406 110 59 98.3164 59 83.904C59 75.4487 63.0077 67.936 69.2098 63.1705C70.681 62.04 72.7497 62.6061 73.6774 64.2158Z" fill="#EEEEEE"/>
<path d="M81.6452 62.3672C81.6452 60.5076 83.1472 59 85 59C86.8528 59 88.3548 60.5076 88.3548 62.3672V81.7288C88.3548 83.5885 86.8528 85.096 85 85.096C83.1472 85.096 81.6452 83.5885 81.6452 81.7288V62.3672Z" fill="#EEEEEE"/>
<circle cx="20.5" cy="131.5" r="6.5" fill="#FF7833" fill-opacity="0.7"/>
<circle cx="37.5" cy="26.5" r="8.5" fill="#FF7833" fill-opacity="0.7"/>
<circle cx="162" cy="57" r="7" fill="#FF7833" fill-opacity="0.7"/>
<circle cx="135" cy="139" r="4" fill="#FF7833" fill-opacity="0.7"/>
</svg>
