<svg width="26" height="26" viewBox="0 0 26 26" fill="none" xmlns="http://www.w3.org/2000/svg">
<path d="M13 0.75C6.23516 0.75 0.75 6.23516 0.75 13C0.75 19.7648 6.23516 25.25 13 25.25C19.7648 25.25 25.25 19.7648 25.25 13C25.25 6.23516 19.7648 0.75 13 0.75ZM13.875 18.9062C13.875 19.0266 13.7766 19.125 13.6562 19.125H12.3438C12.2234 19.125 12.125 19.0266 12.125 18.9062V11.4688C12.125 11.3484 12.2234 11.25 12.3438 11.25H13.6562C13.7766 11.25 13.875 11.3484 13.875 11.4688V18.9062ZM13 9.5C12.6565 9.49299 12.3295 9.35163 12.0891 9.10625C11.8487 8.86087 11.714 8.53103 11.714 8.1875C11.714 7.84397 11.8487 7.51413 12.0891 7.26875C12.3295 7.02337 12.6565 6.88201 13 6.875C13.3435 6.88201 13.6705 7.02337 13.9109 7.26875C14.1513 7.51413 14.286 7.84397 14.286 8.1875C14.286 8.53103 14.1513 8.86087 13.9109 9.10625C13.6705 9.35163 13.3435 9.49299 13 9.5Z" fill="#FF7833"/>
</svg>
