<svg
    xmlns="http://www.w3.org/2000/svg"
    viewBox="0 0 1080 1080"
    id="vector">
    <path
        id="path"
        d="M 912.61 167.39 C 706.83 -38.36 373.19 -38.39 167.39 167.39 C -38.39 373.17 -38.36 706.81 167.39 912.61 C 373.17 1118.34 706.81 1118.36 912.61 912.61 C 1118.36 706.81 1118.34 373.19 912.61 167.39 Z M 608.71 769.1 C 608.71 807.06 577.94 837.83 539.98 837.83 C 502.02 837.83 471.25 807.06 471.25 769.1 L 471.25 494.18 C 471.25 456.22 502.02 425.45 539.98 425.45 C 577.94 425.45 608.71 456.22 608.71 494.18 L 608.71 769.1 Z M 538.76 376.7 C 499.17 376.7 472.78 348.66 473.61 314.04 C 472.78 277.75 499.17 250.56 539.56 250.56 C 579.98 250.56 605.55 277.77 606.39 314.04 C 606.37 348.66 580 376.7 538.76 376.7 Z"
        fill="#ffffff"
        stroke="#ffffff"/>
</svg>
