<svg
    xmlns="http://www.w3.org/2000/svg"
    viewBox="0 0 1028 1028"
    id="vector">
    <defs>
        <clipPath id="clip_path">
            <path d="M 0 0 L 1028 0 L 1028 1028 L 0 1028 Z"/>
        </clipPath>
    </defs>
    <g id="group">
        <path
            id="path"
            clip-path="url(#clip_path)"
            d="M 512.76 536.89 M 132.78 536.89 C 132.78 437.278 172.841 341.645 244.074 271.209 C 315.306 200.773 412.022 161.16 512.76 161.16 C 613.498 161.16 710.214 200.773 781.446 271.209 C 852.679 341.645 892.74 437.278 892.74 536.89 C 892.74 636.502 852.679 732.135 781.446 802.571 C 710.214 873.007 613.498 912.62 512.76 912.62 C 412.022 912.62 315.306 873.007 244.074 802.571 C 172.841 732.135 132.78 636.502 132.78 536.89"
            fill="#bfc6c9"
            stroke="#000000"/>
    </g>
</svg>
