<?xml version="1.0" encoding="UTF-8" standalone="no"?>
<svg
   viewBox="0 0 1028 1028"
   id="vector"
   version="1.1"
   sodipodi:docname="power_button.svg"
   inkscape:version="1.1 (c4e8f9e, 2021-05-24)"
   xmlns:inkscape="http://www.inkscape.org/namespaces/inkscape"
   xmlns:sodipodi="http://sodipodi.sourceforge.net/DTD/sodipodi-0.dtd"
   xmlns="http://www.w3.org/2000/svg"
   xmlns:svg="http://www.w3.org/2000/svg">
  <defs
     id="defs16" />
  <sodipodi:namedview
     id="namedview14"
     pagecolor="#ffffff"
     bordercolor="#666666"
     borderopacity="1.0"
     inkscape:pageshadow="2"
     inkscape:pageopacity="0.0"
     inkscape:pagecheckerboard="0"
     showgrid="false"
     inkscape:zoom="0.84922179"
     inkscape:cx="514"
     inkscape:cy="528.13058"
     inkscape:window-width="1312"
     inkscape:window-height="1081"
     inkscape:window-x="0"
     inkscape:window-y="23"
     inkscape:window-maximized="0"
     inkscape:current-layer="vector" />
  <g
     id="group">
    <path
       id="path_2"
       d="M 514 919.018 C 302.465 919.018 130.38 746.932 130.38 535.398 C 130.38 323.863 302.465 151.778 514 151.778 C 725.535 151.778 897.62 323.863 897.62 535.398 C 897.62 746.932 725.535 919.018 514 919.018 Z M 514 169.672 C 312.334 169.672 148.275 333.732 148.275 535.398 C 148.275 737.054 312.334 901.123 514 901.123 C 715.657 901.123 879.725 737.054 879.725 535.398 C 879.725 333.732 715.657 169.672 514 169.672 Z"
       fill="#ffffff"
       stroke="#ffffff"
       stroke-width="23" />
    <path
       id="path"
       d="M 611.834 355.55 C 601.163 349.754 587.813 353.705 582.017 364.376 C 576.22 375.046 580.172 388.396 590.841 394.193 C 642.903 422.474 675.244 476.806 675.244 535.988 C 675.244 624.898 602.91 697.232 514 697.232 C 425.09 697.232 352.756 624.898 352.756 535.988 C 352.756 477.063 384.889 422.845 436.615 394.488 C 447.264 388.651 451.163 375.285 445.326 364.637 C 439.488 353.989 426.122 350.088 415.476 355.925 C 349.665 392.005 308.781 461.001 308.781 535.988 C 308.781 649.146 400.842 741.207 514 741.207 C 627.158 741.207 719.219 649.146 719.219 535.988 C 719.219 460.672 678.071 391.532 611.834 355.55 Z"
       fill="#ffffff"
       stroke-width="1" />
    <path
       id="path_1"
       d="M 514 477.354 C 526.143 477.354 535.988 467.509 535.988 455.366 L 535.988 308.781 C 535.988 296.638 526.143 286.793 514 286.793 C 501.857 286.793 492.012 296.638 492.012 308.781 L 492.012 455.366 C 492.012 467.509 501.857 477.354 514 477.354 Z"
       fill="#ffffff"
       stroke-width="1" />
  </g>
</svg>
