<svg width="170" height="169" viewBox="0 0 170 169" fill="none" xmlns="http://www.w3.org/2000/svg">
<circle cx="84.5" cy="84.5" r="84.5" fill="#35A1FF"/>
<circle cx="84.5" cy="84.5" r="74.5" fill="#4EACFF"/>
<path d="M23.9999 84.5C23.9999 66.3314 31.8785 50.0029 44.4055 38.7445C44.7124 38.4687 44.2641 37.7588 43.9592 37.2364C42.786 35.6771 40.9283 34.7029 38.9814 34.8319C36.2392 35.013 33.4619 33.8569 31.6899 31.5012C28.58 27.3682 29.8591 21.2772 34.7305 18.8561C37.8067 17.3276 41.6082 17.8834 44.1223 20.2231C46.7578 22.676 47.4214 26.227 46.3568 29.2404C45.7086 31.0753 46.1362 33.1221 47.3063 34.6775C47.7186 35.0188 47.9998 35.5 48.4617 35.3997C58.7639 27.6161 71.5928 23 85.4999 23C110.73 23 132.016 37.2639 141.5 59C142.5 61 144.594 60.9232 146.023 60.4628L152.59 58.3484C154.135 57.851 155.41 56.6621 155.85 55.1006C156.573 52.536 158.731 50.4358 161.706 50.0312C164.543 49.6453 167.4 51.0935 168.761 53.613C170.916 57.6034 168.86 62.3676 164.756 63.6888C162.416 64.4422 159.969 63.8951 158.188 62.454C156.923 61.4306 155.19 61.2015 153.641 61.7001L147.088 63.8103C145.814 64.2205 144 65 144.5 67C146.292 72.771 147 78.1393 147 84.5C147 101.517 140.669 116.365 129.5 127.5C128.834 128.163 129 129 129.634 129.761C130.461 130.753 131 131.5 132.43 133.07C133.187 133.901 134.079 134.302 135.084 134.179C136.735 133.977 138.463 134.723 139.411 136.356C140.315 137.914 140.167 139.929 139.043 141.333C137.263 143.556 134.025 143.517 132.278 141.448C131.282 140.27 131.008 138.712 131.411 137.325C131.696 136.341 131.247 135.12 130.5 134C129.5 132.5 129 132 127.962 131.194C127.2 130.602 125.916 130.626 125.5 131C114.609 140.783 101.292 146 85.4999 146C66.2753 146 49.111 137.179 37.8335 123.364C36.4998 122.5 34.9372 123.027 33.7064 123.91L28.6416 127.543C27.4503 128.398 26.6821 129.772 26.7349 131.237C26.8216 133.643 25.5451 136.046 23.0986 137.215C20.7647 138.331 17.9072 137.875 16.0403 136.083C13.084 133.246 13.5361 128.58 16.7019 126.31C18.506 125.016 20.7625 124.81 22.6927 125.558C24.063 126.089 25.6176 125.807 26.812 124.95L31.8657 121.325C33.0734 120.459 34.4998 119 33.7052 117.674C27.5624 108.102 23.9999 96.7173 23.9999 84.5Z" fill="white"/>
<path d="M73.6774 64.2158C74.6052 65.8256 74.0328 67.8656 72.613 69.0604C68.3888 72.6152 65.7097 77.9469 65.7097 83.904C65.7097 94.5971 74.3463 103.266 85 103.266C95.6538 103.266 104.29 94.5971 104.29 83.904C104.29 77.9469 101.611 72.6152 97.387 69.0604C95.9672 67.8656 95.3948 65.8256 96.3226 64.2158C97.2503 62.6061 99.319 62.04 100.79 63.1705C106.992 67.936 111 75.4487 111 83.904C111 98.3164 99.3594 110 85 110C70.6406 110 59 98.3164 59 83.904C59 75.4487 63.0077 67.936 69.2098 63.1705C70.681 62.04 72.7497 62.6061 73.6774 64.2158Z" fill="#1994FF"/>
<path d="M81.6452 62.3672C81.6452 60.5076 83.1472 59 85 59C86.8528 59 88.3548 60.5076 88.3548 62.3672V81.7288C88.3548 83.5885 86.8528 85.096 85 85.096C83.1472 85.096 81.6452 83.5885 81.6452 81.7288V62.3672Z" fill="#1994FF"/>
</svg>
