<svg width="169" height="169" viewBox="0 0 169 169" fill="none" xmlns="http://www.w3.org/2000/svg">
<circle cx="84.5" cy="84.5" r="84.5" fill="#051421"/>
<circle cx="84.5" cy="84.5" r="74.5" fill="#142D43"/>
<path d="M22.9436 84.5C22.9436 66.3314 30.8221 50.0029 43.3491 38.7445C43.656 38.4687 43.2077 37.7588 42.9028 37.2364C41.7296 35.6771 39.8719 34.7029 37.925 34.8319C35.1828 35.013 32.4055 33.8569 30.6335 31.5012C27.5236 27.3682 28.8027 21.2772 33.6741 18.8561C36.7503 17.3276 40.5518 17.8834 43.0659 20.2231C45.7014 22.676 46.365 26.227 45.3004 29.2404C44.6522 31.0753 45.0798 33.1221 46.2499 34.6775C46.6622 35.0188 46.9434 35.5 47.4053 35.3997C57.7075 27.6161 70.5365 23 84.4436 23C109.674 23 130.96 37.2639 140.443 59C141.443 61 143.537 60.9232 144.967 60.4628L151.534 58.3484C153.079 57.851 154.354 56.6621 154.794 55.1006C155.516 52.536 157.675 50.4358 160.649 50.0312C163.486 49.6453 166.343 51.0935 167.704 53.613C169.86 57.6034 167.804 62.3676 163.699 63.6888C161.36 64.4422 158.912 63.8951 157.131 62.454C155.867 61.4306 154.133 61.2015 152.585 61.7001L146.032 63.8103C144.757 64.2205 142.943 65 143.443 67C145.236 72.771 145.944 78.1393 145.944 84.5C145.944 101.517 139.613 116.365 128.443 127.5C127.778 128.163 127.943 129 128.578 129.761C129.405 130.753 129.943 131.5 131.374 133.07C132.13 133.901 133.023 134.302 134.028 134.179C135.679 133.977 137.407 134.723 138.355 136.356C139.259 137.914 139.111 139.929 137.987 141.333C136.206 143.556 132.968 143.517 131.221 141.448C130.225 140.27 129.952 138.712 130.354 137.325C130.64 136.341 130.19 135.12 129.443 134C128.443 132.5 127.943 132 126.906 131.194C126.144 130.602 124.86 130.626 124.443 131C113.553 140.783 100.235 146 84.4436 146C65.2189 146 48.0546 137.179 36.7771 123.364C35.4434 122.5 33.8808 123.027 32.65 123.91L27.5852 127.543C26.3939 128.398 25.6257 129.772 25.6785 131.237C25.7652 133.643 24.4888 136.046 22.0422 137.215C19.7083 138.331 16.8508 137.875 14.9839 136.083C12.0276 133.246 12.4797 128.58 15.6455 126.31C17.4496 125.016 19.7061 124.81 21.6363 125.558C23.0066 126.089 24.5612 125.807 25.7556 124.95L30.8093 121.325C32.017 120.459 33.4434 119 32.6488 117.674C26.506 108.102 22.9436 96.7173 22.9436 84.5Z" fill="#F5F5F5"/>
<path d="M73.6774 64.2158C74.6052 65.8256 74.0328 67.8656 72.613 69.0604C68.3888 72.6152 65.7097 77.9469 65.7097 83.904C65.7097 94.5971 74.3463 103.266 85 103.266C95.6538 103.266 104.29 94.5971 104.29 83.904C104.29 77.9469 101.611 72.6152 97.387 69.0604C95.9672 67.8656 95.3948 65.8256 96.3226 64.2158C97.2503 62.6061 99.319 62.04 100.79 63.1705C106.992 67.936 111 75.4487 111 83.904C111 98.3164 99.3594 110 85 110C70.6406 110 59 98.3164 59 83.904C59 75.4487 63.0077 67.936 69.2098 63.1705C70.681 62.04 72.7497 62.6061 73.6774 64.2158Z" fill="black"/>
<path d="M81.6452 62.3672C81.6452 60.5076 83.1472 59 85 59C86.8528 59 88.3548 60.5076 88.3548 62.3672V81.7288C88.3548 83.5885 86.8528 85.096 85 85.096C83.1472 85.096 81.6452 83.5885 81.6452 81.7288V62.3672Z" fill="black"/>
</svg>
